<mxfile host="65bd71144e">
    <diagram id="fvXR1uMgcstzJIS6BT00" name="Page-1">
        <mxGraphModel dx="790" dy="617" grid="1" gridSize="10" guides="1" tooltips="1" connect="1" arrows="1" fold="1" page="1" pageScale="1" pageWidth="827" pageHeight="1169" math="0" shadow="0">
            <root>
                <mxCell id="0"/>
                <mxCell id="1" parent="0"/>
                <mxCell id="2" value="" style="rounded=0;whiteSpace=wrap;html=1;fillColor=#647687;strokeColor=#314354;fontColor=#ffffff;" parent="1" vertex="1">
                    <mxGeometry x="20" width="740" height="630" as="geometry"/>
                </mxCell>
                <mxCell id="3" value="" style="rounded=0;whiteSpace=wrap;html=1;fillColor=#60a917;strokeColor=#2D7600;fontColor=#ffffff;" parent="1" vertex="1">
                    <mxGeometry x="20" width="740" height="70" as="geometry"/>
                </mxCell>
                <mxCell id="4" value="" style="rounded=0;whiteSpace=wrap;html=1;fillColor=#fa6800;strokeColor=#C73500;fontColor=#000000;" parent="1" vertex="1">
                    <mxGeometry x="40" y="80" width="670" height="540" as="geometry"/>
                </mxCell>
                <mxCell id="5" value="" style="rounded=0;whiteSpace=wrap;html=1;fillColor=#76608a;strokeColor=#432D57;fontColor=#ffffff;" parent="1" vertex="1">
                    <mxGeometry x="50" y="90" width="290" height="520" as="geometry"/>
                </mxCell>
                <mxCell id="6" value="" style="rounded=0;whiteSpace=wrap;html=1;fillColor=#a0522d;strokeColor=#6D1F00;fontColor=#ffffff;" parent="1" vertex="1">
                    <mxGeometry x="360" y="90" width="320" height="520" as="geometry"/>
                </mxCell>
                <mxCell id="7" value="Div - Nav Bar" style="text;html=1;strokeColor=none;fillColor=none;align=center;verticalAlign=middle;whiteSpace=wrap;rounded=0;" parent="1" vertex="1">
                    <mxGeometry x="370" y="25" width="120" height="20" as="geometry"/>
                </mxCell>
                <mxCell id="8" value="Div container" style="text;html=1;strokeColor=none;fillColor=none;align=center;verticalAlign=middle;whiteSpace=wrap;rounded=0;" parent="1" vertex="1">
                    <mxGeometry x="680" y="250" width="40" height="20" as="geometry"/>
                </mxCell>
                <mxCell id="9" value="Images" style="text;html=1;strokeColor=none;fillColor=none;align=center;verticalAlign=middle;whiteSpace=wrap;rounded=0;" parent="1" vertex="1">
                    <mxGeometry x="510" y="230" width="40" height="20" as="geometry"/>
                </mxCell>
                <mxCell id="10" value="Text" style="text;html=1;strokeColor=none;fillColor=none;align=center;verticalAlign=middle;whiteSpace=wrap;rounded=0;" parent="1" vertex="1">
                    <mxGeometry x="130" y="230" width="40" height="20" as="geometry"/>
                </mxCell>
            </root>
        </mxGraphModel>
    </diagram>
    <diagram id="jD8bHkSmHgnSgcXkm_ki" name="Page-2">
        <mxGraphModel dx="790" dy="617" grid="1" gridSize="10" guides="1" tooltips="1" connect="1" arrows="1" fold="1" page="1" pageScale="1" pageWidth="827" pageHeight="1169" math="0" shadow="0">
            <root>
                <mxCell id="E63ktTMH49arZVvFKUs3-0"/>
                <mxCell id="E63ktTMH49arZVvFKUs3-1" parent="E63ktTMH49arZVvFKUs3-0"/>
                <mxCell id="E63ktTMH49arZVvFKUs3-2" value="" style="rounded=0;whiteSpace=wrap;html=1;" parent="E63ktTMH49arZVvFKUs3-1" vertex="1">
                    <mxGeometry x="30" y="40" width="750" height="560" as="geometry"/>
                </mxCell>
                <mxCell id="E63ktTMH49arZVvFKUs3-3" value="nav bar" style="rounded=0;whiteSpace=wrap;html=1;fillColor=#d80073;strokeColor=#A50040;fontColor=#ffffff;" parent="E63ktTMH49arZVvFKUs3-1" vertex="1">
                    <mxGeometry x="30" y="40" width="750" height="60" as="geometry"/>
                </mxCell>
                <mxCell id="E63ktTMH49arZVvFKUs3-5" value="" style="rounded=0;whiteSpace=wrap;html=1;fillColor=#fa6800;strokeColor=#C73500;fontColor=#000000;" parent="E63ktTMH49arZVvFKUs3-1" vertex="1">
                    <mxGeometry x="60" y="110" width="680" height="450" as="geometry"/>
                </mxCell>
                <mxCell id="E63ktTMH49arZVvFKUs3-6" value="" style="rounded=0;whiteSpace=wrap;html=1;fillColor=#f0a30a;strokeColor=#BD7000;fontColor=#000000;" parent="E63ktTMH49arZVvFKUs3-1" vertex="1">
                    <mxGeometry x="80" y="120" width="190" height="430" as="geometry"/>
                </mxCell>
                <mxCell id="E63ktTMH49arZVvFKUs3-8" value="Text" style="text;html=1;strokeColor=none;fillColor=none;align=center;verticalAlign=middle;whiteSpace=wrap;rounded=0;" parent="E63ktTMH49arZVvFKUs3-1" vertex="1">
                    <mxGeometry x="160" y="260" width="40" height="20" as="geometry"/>
                </mxCell>
                <mxCell id="E63ktTMH49arZVvFKUs3-9" value="" style="rounded=0;whiteSpace=wrap;html=1;fillColor=#647687;strokeColor=#314354;fontColor=#ffffff;" parent="E63ktTMH49arZVvFKUs3-1" vertex="1">
                    <mxGeometry x="430" y="130" width="300" height="400" as="geometry"/>
                </mxCell>
                <mxCell id="E63ktTMH49arZVvFKUs3-10" value="images" style="text;html=1;strokeColor=none;fillColor=none;align=center;verticalAlign=middle;whiteSpace=wrap;rounded=0;" parent="E63ktTMH49arZVvFKUs3-1" vertex="1">
                    <mxGeometry x="590" y="260" width="40" height="20" as="geometry"/>
                </mxCell>
                <mxCell id="jEelVvtsR-SoMmxD8Twb-0" value="Container" style="text;html=1;strokeColor=none;fillColor=none;align=center;verticalAlign=middle;whiteSpace=wrap;rounded=0;" parent="E63ktTMH49arZVvFKUs3-1" vertex="1">
                    <mxGeometry x="330" y="170" width="40" height="20" as="geometry"/>
                </mxCell>
                <mxCell id="eNT9_o5E6-K9XByAH3WQ-0" value="Logo" style="rounded=0;whiteSpace=wrap;html=1;fillColor=#a20025;strokeColor=#6F0000;fontColor=#ffffff;" parent="E63ktTMH49arZVvFKUs3-1" vertex="1">
                    <mxGeometry x="30" y="40" width="120" height="60" as="geometry"/>
                </mxCell>
                <mxCell id="0gpZ9eaAjh0ANF4RYcla-0" value="link to twitter" style="rounded=0;whiteSpace=wrap;html=1;" parent="E63ktTMH49arZVvFKUs3-1" vertex="1">
                    <mxGeometry x="294" y="230" width="120" height="60" as="geometry"/>
                </mxCell>
                <mxCell id="0gpZ9eaAjh0ANF4RYcla-1" value="link to instagram" style="rounded=0;whiteSpace=wrap;html=1;" parent="E63ktTMH49arZVvFKUs3-1" vertex="1">
                    <mxGeometry x="294" y="310" width="120" height="50" as="geometry"/>
                </mxCell>
                <mxCell id="0gpZ9eaAjh0ANF4RYcla-2" value="link to facebook&amp;nbsp;" style="rounded=0;whiteSpace=wrap;html=1;" parent="E63ktTMH49arZVvFKUs3-1" vertex="1">
                    <mxGeometry x="294" y="400" width="120" height="60" as="geometry"/>
                </mxCell>
            </root>
        </mxGraphModel>
    </diagram>
    <diagram id="HFaTgQ70BkNxaojb79nY" name="Page-3">
        <mxGraphModel dx="790" dy="617" grid="1" gridSize="10" guides="1" tooltips="1" connect="1" arrows="1" fold="1" page="1" pageScale="1" pageWidth="827" pageHeight="1169" math="0" shadow="0">
            <root>
                <mxCell id="KFf9Lu2dOHiYFs6_LqYv-0"/>
                <mxCell id="KFf9Lu2dOHiYFs6_LqYv-1" parent="KFf9Lu2dOHiYFs6_LqYv-0"/>
                <mxCell id="KFf9Lu2dOHiYFs6_LqYv-2" value="" style="rounded=0;whiteSpace=wrap;html=1;" parent="KFf9Lu2dOHiYFs6_LqYv-1" vertex="1">
                    <mxGeometry x="70" y="40" width="650" height="580" as="geometry"/>
                </mxCell>
                <mxCell id="KFf9Lu2dOHiYFs6_LqYv-3" value="div - nav bar" style="rounded=0;whiteSpace=wrap;html=1;fillColor=#fa6800;strokeColor=#C73500;fontColor=#000000;" parent="KFf9Lu2dOHiYFs6_LqYv-1" vertex="1">
                    <mxGeometry x="70" y="40" width="650" height="60" as="geometry"/>
                </mxCell>
                <mxCell id="KFf9Lu2dOHiYFs6_LqYv-5" value="" style="rounded=0;whiteSpace=wrap;html=1;fillColor=#a0522d;strokeColor=#6D1F00;fontColor=#ffffff;" parent="KFf9Lu2dOHiYFs6_LqYv-1" vertex="1">
                    <mxGeometry x="90" y="100" width="610" height="500" as="geometry"/>
                </mxCell>
                <mxCell id="KFf9Lu2dOHiYFs6_LqYv-7" value="text" style="rounded=0;whiteSpace=wrap;html=1;fillColor=#647687;strokeColor=#314354;fontColor=#ffffff;" parent="KFf9Lu2dOHiYFs6_LqYv-1" vertex="1">
                    <mxGeometry x="110" y="120" width="150" height="470" as="geometry"/>
                </mxCell>
                <mxCell id="KFf9Lu2dOHiYFs6_LqYv-8" value="images" style="rounded=0;whiteSpace=wrap;html=1;fillColor=#6d8764;strokeColor=#3A5431;fontColor=#ffffff;" parent="KFf9Lu2dOHiYFs6_LqYv-1" vertex="1">
                    <mxGeometry x="420" y="130" width="250" height="450" as="geometry"/>
                </mxCell>
                <mxCell id="KFf9Lu2dOHiYFs6_LqYv-11" value="container" style="text;html=1;strokeColor=none;fillColor=none;align=center;verticalAlign=middle;whiteSpace=wrap;rounded=0;" parent="KFf9Lu2dOHiYFs6_LqYv-1" vertex="1">
                    <mxGeometry x="320" y="280" width="40" height="20" as="geometry"/>
                </mxCell>
                <mxCell id="K23ZNKEeJ1zA7kTdOvVW-0" value="logo" style="rounded=0;whiteSpace=wrap;html=1;fillColor=#d80073;strokeColor=#A50040;fontColor=#ffffff;" parent="KFf9Lu2dOHiYFs6_LqYv-1" vertex="1">
                    <mxGeometry x="70" y="40" width="120" height="60" as="geometry"/>
                </mxCell>
                <mxCell id="ABSwAdPWXiik1g0YDHXB-0" value="link to twitter" style="rounded=0;whiteSpace=wrap;html=1;" parent="KFf9Lu2dOHiYFs6_LqYv-1" vertex="1">
                    <mxGeometry x="280" y="190" width="120" height="60" as="geometry"/>
                </mxCell>
                <mxCell id="ABSwAdPWXiik1g0YDHXB-1" value="link to instagram" style="rounded=0;whiteSpace=wrap;html=1;" parent="KFf9Lu2dOHiYFs6_LqYv-1" vertex="1">
                    <mxGeometry x="280" y="450" width="120" height="60" as="geometry"/>
                </mxCell>
                <mxCell id="ed3DI3Vsphk_USJ5M9UM-1" value="link to facebook&amp;nbsp;" style="rounded=0;whiteSpace=wrap;html=1;" parent="KFf9Lu2dOHiYFs6_LqYv-1" vertex="1">
                    <mxGeometry x="280" y="340" width="120" height="60" as="geometry"/>
                </mxCell>
            </root>
        </mxGraphModel>
    </diagram>
</mxfile>